<svg width="65" height="65" viewBox="0 0 65 65" fill="none" xmlns="http://www.w3.org/2000/svg">
<g filter="url(#filter0_d)">
<path d="M44.2635 44.4263H20.9203V39.3717L31.6729 28.0677C34.3227 25.0502 35.6476 22.6531 35.6476 20.8763C35.6476 19.4365 35.3336 18.3414 34.7056 17.5908C34.0776 16.8403 33.1663 16.465 31.9715 16.465C30.7921 16.465 29.8348 16.9705 29.0996 17.9814C28.3644 18.977 27.9968 20.2254 27.9968 21.7264H20.231C20.231 19.674 20.7442 17.7823 21.7704 16.0515C22.7966 14.3053 24.2211 12.9421 26.0439 11.9618C27.8666 10.9815 29.9037 10.4914 32.1553 10.4914C35.7702 10.4914 38.5502 11.3262 40.4955 12.9957C42.456 14.6653 43.4363 17.0624 43.4363 20.1871C43.4363 21.5043 43.1913 22.791 42.7011 24.047C42.211 25.2876 41.4451 26.5973 40.4036 27.9758C39.3773 29.339 37.7154 31.1694 35.4179 33.4669L31.0985 38.4526H44.2635V44.4263Z" fill="#001AFF"/>
<path d="M32.5 55.3999C47.3012 55.3999 59.3 43.4012 59.3 28.5999C59.3 13.7987 47.3012 1.79993 32.5 1.79993C17.6988 1.79993 5.70001 13.7987 5.70001 28.5999C5.70001 43.4012 17.6988 55.3999 32.5 55.3999Z" stroke="#001AFF" stroke-width="2" stroke-miterlimit="10"/>
</g>
<defs>
<filter id="filter0_d" x="0" y="0" width="65" height="65" filterUnits="userSpaceOnUse" color-interpolation-filters="sRGB">
<feFlood flood-opacity="0" result="BackgroundImageFix"/>
<feColorMatrix in="SourceAlpha" type="matrix" values="0 0 0 0 0 0 0 0 0 0 0 0 0 0 0 0 0 0 127 0"/>
<feOffset dy="4"/>
<feGaussianBlur stdDeviation="2"/>
<feColorMatrix type="matrix" values="0 0 0 0 0 0 0 0 0 0 0 0 0 0 0 0 0 0 0.25 0"/>
<feBlend mode="normal" in2="BackgroundImageFix" result="effect1_dropShadow"/>
<feBlend mode="normal" in="SourceGraphic" in2="effect1_dropShadow" result="shape"/>
</filter>
</defs>
</svg>
