<svg width="64" height="64" viewBox="0 0 64 64" fill="none" xmlns="http://www.w3.org/2000/svg">
<g filter="url(#filter0_d)">
<path d="M27.2968 25.0343H30.9499C33.8448 25.0343 35.2923 23.6174 35.2923 20.7838C35.2923 19.681 34.9476 18.7849 34.2584 18.0956C33.5691 17.3911 32.5965 17.0388 31.3405 17.0388C30.3142 17.0388 29.4182 17.3375 28.6523 17.9348C27.9018 18.5322 27.5265 19.2751 27.5265 20.1634H19.7838C19.7838 18.402 20.2739 16.832 21.2542 15.4535C22.2345 14.0749 23.59 13.0027 25.3209 12.2369C27.067 11.4557 28.9816 11.0651 31.0648 11.0651C34.7868 11.0651 37.7123 11.9152 39.8414 13.6154C41.9705 15.3156 43.035 17.6515 43.035 20.623C43.035 22.0628 42.5908 23.426 41.7024 24.7126C40.8294 25.9839 39.5504 27.0178 37.8655 27.8143C39.6423 28.4576 41.0361 29.4379 42.0471 30.7552C43.058 32.0571 43.5634 33.6731 43.5634 35.603C43.5634 38.5898 42.4147 40.9793 40.1171 42.7714C37.8196 44.5635 34.8021 45.4595 31.0648 45.4595C28.8744 45.4595 26.8373 45.046 24.9533 44.2188C23.0846 43.3764 21.6678 42.22 20.7028 40.7495C19.7378 39.2638 19.2553 37.5789 19.2553 35.6949H27.044C27.044 36.7211 27.4576 37.6095 28.2847 38.3601C29.1118 39.1106 30.1304 39.4859 31.3405 39.4859C32.7037 39.4859 33.7912 39.1106 34.603 38.3601C35.4148 37.5942 35.8207 36.6216 35.8207 35.4422C35.8207 33.7573 35.3995 32.5626 34.557 31.858C33.7146 31.1534 32.5505 30.8011 31.0648 30.8011H27.2968V25.0343Z" fill="#001AFF"/>
<path d="M31.8 54.9737C46.6012 54.9737 58.6 42.975 58.6 28.1737C58.6 13.3725 46.6012 1.37372 31.8 1.37372C16.9988 1.37372 5 13.3725 5 28.1737C5 42.975 16.9988 54.9737 31.8 54.9737Z" stroke="#001AFF" stroke-width="2" stroke-miterlimit="10"/>
</g>
<defs>
<filter id="filter0_d" x="0" y="0.373718" width="63.6" height="63.6" filterUnits="userSpaceOnUse" color-interpolation-filters="sRGB">
<feFlood flood-opacity="0" result="BackgroundImageFix"/>
<feColorMatrix in="SourceAlpha" type="matrix" values="0 0 0 0 0 0 0 0 0 0 0 0 0 0 0 0 0 0 127 0"/>
<feOffset dy="4"/>
<feGaussianBlur stdDeviation="2"/>
<feColorMatrix type="matrix" values="0 0 0 0 0 0 0 0 0 0 0 0 0 0 0 0 0 0 0.25 0"/>
<feBlend mode="normal" in2="BackgroundImageFix" result="effect1_dropShadow"/>
<feBlend mode="normal" in="SourceGraphic" in2="effect1_dropShadow" result="shape"/>
</filter>
</defs>
</svg>
